<?xml version="1.0" encoding="UTF-8"?>
<svg id="Capa_2" xmlns="http://www.w3.org/2000/svg" viewBox="0 0 425.54 175.91">
  <defs>
    <style>
      .cls-1 {
        fill: #fff;
      }

      .cls-2 {
        fill: none;
      }

      .cls-3 {
        fill: #bed3cf;
      }
    </style>
  </defs>
  <g id="Layer_1">
    <g>
      <g>
        <path class="cls-1" d="M0,23.19c0-2.41,1.97-5.03,4.81-5.03,2.19,0,4.16,1.09,5.91,3.06,1.53,1.53,9.41,11.38,9.41,41.13,0,14.88-.44,26.47-.44,26.47C32.6,47.7,55.79,0,90.58,0c15.32,0,24.94,9.85,24.94,25.6,0,18.82-12.91,40.04-27.13,54.04,11.38,2.41,19.69,7.44,24.72,14.88,5.69-.87,11.81-1.31,17.72-1.31,2.63,0,4.81,1.31,4.81,3.94,0,1.97-1.97,3.5-4.59,3.5-4.16,0-9.85.66-14,1.09,1.09,2.84,1.53,5.91,1.53,9.63,0,27.57-30.85,64.54-66.07,64.54-17.07,0-24.94-8.31-24.94-18.38,0-20.78,35.88-50.98,76.36-60.82-4.81-4.81-13.57-10.06-22.75-10.72-12.47,9.63-26.47,16.19-37.63,16.19-6.13,0-11.38-2.63-11.38-7.44,0-7.66,17.72-16.41,41.35-16.41,1.09,0,2.19,0,3.28.22,15.75-13.13,29.32-33.47,29.32-53.17,0-10.28-5.91-17.07-15.53-17.07-32.38,0-55.35,58.2-66.51,98.24-5.69,20.79-8.53,36.97-9.19,41.35-.44,2.84-1.75,5.25-4.81,5.25-2.63,0-4.59-1.53-4.59-5.03,0-.44,0-1.75.22-2.62,1.53-9.19,5.25-52.73,5.25-80.52,0-29.54-5.47-34.57-8.1-36.97-1.97-1.53-2.84-3.28-2.84-4.81ZM107.86,103.71c-37.41,8.97-71.11,35.88-71.11,54.04,0,4.81,4.16,9.85,15.32,9.85,30.63,0,56.88-32.6,56.88-56.45,0-2.63-.44-5.03-1.09-7.44ZM65.86,86.2c-13.78,1.31-23.41,5.03-23.41,7.66,0,.22.22.44,1.09.44,6.78,0,14-2.84,22.32-8.09Z"/>
        <path class="cls-1" d="M277.21,150.75c-15.32,0-17.5-13.78-22.1-45.95-1.09-7.44-1.75-12.25-5.47-12.25-8.31,0-20.35,19.47-28.66,36.76-6.34,13.13-10.06,25.16-10.06,25.16-.66,2.41-2.41,3.28-4.38,3.28-2.19,0-4.38-1.31-4.59-4.38-.66-8.31,2.84-26.25,5.03-38.51,2.41-11.81,5.69-28.22,5.69-35.22,0-5.25-2.19-6.78-5.25-6.78-4.81,0-16.63,2.84-24.72,8.31,1.31,1.53,6.56,8.75,6.56,24.72,0,29.76-20.78,52.07-38.73,52.07-11.81,0-21.22-8.75-21.22-24.94,0-20.78,14.22-36.54,24.07-43.1,1.97-1.31,3.72-2.41,5.91-2.41,2.41,0,4.16,1.53,4.16,3.72,0,1.31-.66,2.84-2.41,3.94-8.31,5.03-22.75,18.16-22.75,37.85,0,12.25,4.81,17.07,13.13,17.07,14,0,29.1-19.47,29.1-44.2,0-14.88-4.16-18.6-6.78-21-1.31-1.09-2.19-1.75-2.19-3.28,0-7,25.82-16.41,37.85-16.41,7.66,0,13.78,3.28,13.78,11.81,0,10.72-3.06,27.13-7,45.95,9.19-19.25,21.66-38.94,34.57-38.94,9.41,0,11.6,7.44,13.35,18.82,4.59,30.63,6.34,40.26,13.78,40.26,13.78,0,24.5-32.38,24.5-32.38.87-2.41,2.41-3.5,3.94-3.5,1.97,0,3.72,1.53,3.72,3.28,0,1.53-.44,2.63-1.09,4.81-1.97,5.91-12.25,35.44-31.72,35.44Z"/>
        <path class="cls-1" d="M306.19,73.99c2.63-12.75,8.43-44.19,12.59-57.17.87-2.83,2.41-5.9,5.69-5.9,2.84,0,5.25,2.6,5.25,4.96,0,1.65-.87,4.01-1.75,6.37-4.38,11.57-10.72,46.27-10.72,46.27M317.24,68.51c-3.5,15.34-6.34,35.41-6.34,53.11,0,19.36,5.47,25.02,12.03,25.02,9.85,0,21.22-25.49,26.47-36.59,1.09-2.36,1.97-5.43,4.81-5.43,1.75,0,3.5,1.18,3.5,3.3,0,1.18-.44,2.6-1.31,4.96-4.16,11.1-17.94,42.02-34.13,42.02-10.28,0-21-8.97-21-33.76,0-17.7,3.06-34.94,5.69-52.17"/>
        <path class="cls-1" d="M360.35,128.65c2.19,11.38,11.16,16.19,20.79,16.19,17.28,0,30.63-22.75,36.32-34.13,1.31-2.63,2.63-3.5,4.38-3.5s3.72,1.31,3.72,3.28c0,1.09-.66,2.84-1.31,4.38-5.69,12.25-22.1,37.85-46.16,37.85-13.57,0-29.1-8.53-29.1-31.29,0-27.57,20.13-44.63,30.85-44.63,7,0,12.25,4.16,12.25,13.35,0,14.44-16.19,38.73-29.1,38.73-1.31,0-2.63-.22-2.63-.22ZM359.47,122.08c12.03-2.62,24.29-22.32,24.29-33.47,0-3.06-1.53-4.81-3.94-4.81-7.88,0-20.35,15.32-20.35,38.29Z"/>
      </g>
      <path class="cls-1" d="M365.29,55.53c-.34.03-62.51,5.89-74.82,5.59-24.69-.6-32.67-8.68-33.9-10.24-1.59-1.79-2.45-3.78-2.4-5.97.07-2.84,2.3-4.76,4.29-4.71,1.27.03,2.7.94,3.92,2.94,1.93,2.67,5.97,8.24,30.48,8.84,23.06.56,59.27-2.27,66.93-3.62.73-.2,1.82-.17,2.18-.17,2.9.07,4.13,2.07,4.06,4.69-.03,1.1-.31,1.96-.77,2.63Z"/>
      <path class="cls-3" d="M395.54,50.69c.02-.2.27-.29.39-.43.04.3.19.57.24.87.13.7.15,1.41.18,2.11.03.64.03,1.29.03,1.93.01,1.13-.02,2.26-.17,3.38-.04.39-.14.77-.13,1.16v.02c-.79.95-1.56,1.92-2.35,2.87.24-.52.43-1.06.61-1.6,1.14-3.3,1.48-6.85,1.19-10.32Z"/>
      <path class="cls-3" d="M402.34,58.83c1.17-.2,2.35-.38,3.54-.37-.13.23-.17.5-.23.75-1.19.01-2.38.2-3.54.47-1.25.28-2.49.67-3.66,1.18-1.59.73-3.15,1.56-4.54,2.63-.32.26-.69.46-.94.79.11-.32.41-.5.63-.74.88-.89,1.71-1.83,2.52-2.77h.02c.18.04.34-.08.49-.15.75-.35,1.54-.59,2.32-.88.57-.21,1.13-.43,1.72-.56.56-.13,1.12-.25,1.68-.35Z"/>
      <path class="cls-1" d="M405.02,45.71c.93-.22,1.87-.43,2.81-.55,0,1.36.07,2.73.07,4.09-.01,1.37-.08,2.75-.36,4.1-.14.77-.4,1.52-.59,2.28-.3.96-.68,1.9-1.09,2.83-1.19,0-2.37.17-3.54.37-.57.09-1.13.22-1.68.35-.59.13-1.15.35-1.72.56-.77.29-1.57.53-2.32.88-.16.07-.31.2-.49.15.93-1.09,1.87-2.17,2.73-3.32,1.26-1.68,1.36-1.61,2.52-3.36.42-.66.72-1.02.92-1.79-.05-.01-.16-.06-.21-.07-.43.36-.92.86-1.24,1.31-2.04,2.79-2.59,3.48-4.76,6.17-.01-.39.1-.78.13-1.16.15-1.12.18-2.25.17-3.38,0-.64,0-1.29-.03-1.93-.03-.71-.05-1.42-.18-2.11-.05-.3-.2-.57-.24-.87.98-.83,2.03-1.58,3.16-2.2.89-.52,1.85-.92,2.79-1.32,1.02-.41,2.07-.77,3.14-1.02Z"/>
      <path class="cls-1" d="M405.02,45.71c-1.07.25-2.12.61-3.14,1.02-.95.41-1.9.8-2.79,1.32-1.13.62-2.17,1.37-3.16,2.2-.12.14-.37.23-.39.43.28,3.47-.05,7.02-1.19,10.32-.18.54-.37,1.08-.61,1.6.79-.95,1.56-1.92,2.35-2.87v-.02c2.17-2.69,4.25-5.46,6.29-8.25.32-.45.68-.88,1.11-1.24.05.01.1.02.15.04-.2.77-.68,1.42-1.1,2.08-1.16,1.75-2.42,3.43-3.67,5.11-.86,1.15-1.8,2.23-2.73,3.32h-.02c-.82.94-1.64,1.89-2.52,2.77-.22.24-.52.42-.63.74.25-.33.63-.53.94-.79,1.39-1.07,2.95-1.9,4.54-2.63,1.18-.52,2.41-.9,3.66-1.18,1.16-.27,2.35-.46,3.54-.47.06-.26.1-.52.23-.75.41-.92.79-1.86,1.09-2.83.2-.76.46-1.5.59-2.28.28-1.35.35-2.72.36-4.1,0-1.36-.08-2.73-.07-4.09-.95.12-1.88.33-2.81.55Z"/>
      <path class="cls-2" d="M390.01,39.38c-.06.18-.18.33-.3.46-.47.5-.86,1.05-1.34,1.54-.77.77-1.41,1.66-1.97,2.59-.95,1.52-1.71,3.15-2.27,4.85-.44,1.29-.76,2.61-.95,3.96-.38,2.49-.34,5.04.16,7.51.46,2.17,1.16,4.29,2.13,6.29.48,1,.97,2.01,1.64,2.91-.25-3.1-.18-6.22.02-9.33.08-1.35.26-2.7.42-4.05.18-1.63.39-3.25.61-4.87.1-.72.18-1.46.49-2.13.05.02.1.03.14.05.18.72.1,1.46.04,2.19-.13,1.68-.32,3.36-.48,5.04-.12,1.19-.17,2.38-.24,3.57-.18,2.94-.43,5.89-.39,8.84h-.01c.02.39.01.78.05,1.16.12-.25.25-.5.41-.73.68-1.02,1.51-1.93,2.36-2.81.36-.37.59-.83.86-1.26.39-.7.77-1.4,1.07-2.13.38-.74.63-1.55.94-2.34.14-.55.35-1.08.47-1.64.49-1.87.78-3.79.82-5.72.05-2.18-.14-4.37-.75-6.47-.37-1.33-.94-2.6-1.55-3.83-.67-1.29-1.4-2.58-2.39-3.66Z"/>
      <path class="cls-2" d="M411.17,60.35c.06.04.11.08.17.12-.51-.14-1.04-.17-1.56-.24-1.92-.19-3.85-.14-5.76.14-1.25.21-2.48.49-3.69.89-2.23.72-4.32,1.84-6.18,3.27-.99.74-1.94,1.54-2.81,2.41-.52.53-.94,1.16-1.44,1.72-.46.57-1,1.07-1.46,1.65.42.06.86,0,1.28,0,1.47-.06,2.93-.29,4.39-.51,1.26-.21,2.51-.43,3.76-.68,2.46-.51,4.91-1.1,7.34-1.74.98-.25,1.94-.57,2.93-.76.23-.02.47-.12.69-.03-.01.03-.04.09-.06.13-.85.58-1.85.86-2.82,1.17-2.52.79-5.08,1.42-7.65,2.01-2.34.56-4.73.95-7.14,1.04-1.03.05-2.07-.02-3.09-.08l-.04.1c.88.26,1.73.64,2.63.84,2.43.69,4.96,1.08,7.49,1.02,2.33-.05,4.65-.42,6.87-1.1,2.5-.79,4.92-1.92,6.97-3.56,1.04-.82,1.95-1.78,2.83-2.76.84-.99,1.68-2.01,2.24-3.19-.76-.23-1.51-.51-2.26-.76-.71-.33-1.46-.57-2.22-.74-.46-.16-.98-.13-1.42-.35Z"/>
      <path class="cls-1" d="M390.01,39.38c.99,1.08,1.72,2.37,2.39,3.66.61,1.23,1.18,2.5,1.55,3.83.61,2.1.8,4.29.75,6.47-.04,1.93-.33,3.85-.82,5.72-.12.56-.33,1.09-.47,1.64-.3.78-.56,1.59-.94,2.34-.67.47-1.2,1.11-1.69,1.76-.92.99-1.74,2.06-2.47,3.2-.19.27-.32.59-.58.82-.04-2.95.21-5.9.39-8.84.07-1.19.12-2.38.24-3.57.16-1.68.34-3.36.48-5.04.05-.73.14-1.47-.04-2.19-.05-.02-.09-.03-.14-.05-.32.67-.39,1.41-.49,2.13-.22,1.62-.43,3.24-.61,4.87-.16,1.35-.33,2.69-.42,4.05-.2,3.1-.27,6.23-.02,9.33-.66-.9-1.15-1.91-1.64-2.91-.97-2-1.67-4.12-2.13-6.29-.5-2.47-.54-5.02-.16-7.51.19-1.35.5-2.68.95-3.96.56-1.7,1.32-3.34,2.27-4.85.56-.93,1.2-1.82,1.97-2.59.48-.49.87-1.04,1.34-1.54.13-.13.25-.28.3-.46Z"/>
      <path class="cls-1" d="M411.17,60.35c.44.22.95.19,1.42.35.76.17,1.51.41,2.22.74.75.26,1.5.54,2.26.76-.56,1.18-1.4,2.19-2.24,3.19-.88.98-1.8,1.94-2.83,2.76-2.05,1.65-4.47,2.77-6.97,3.56-2.23.68-4.55,1.05-6.87,1.1-2.53.06-5.06-.33-7.49-1.02-.9-.2-1.74-.58-2.63-.84l.04-.1c1.03.06,2.06.13,3.09.08,2.41-.09,4.8-.48,7.14-1.04,2.57-.58,5.14-1.22,7.65-2.01.97-.31,1.97-.59,2.82-1.17.01-.03.04-.09.06-.13-.23-.09-.46,0-.69.03-.99.19-1.95.52-2.93.76-2.43.64-4.88,1.23-7.34,1.74-1.25.24-2.5.47-3.76.68-1.45.23-2.91.45-4.39.51-.43,0-.86.06-1.28,0,.45-.58.99-1.08,1.46-1.65.49-.56.91-1.18,1.44-1.72.87-.88,1.82-1.67,2.81-2.41,1.86-1.42,3.95-2.55,6.18-3.27,1.2-.4,2.44-.69,3.69-.89,1.9-.28,3.84-.33,5.76-.14.52.07,1.05.1,1.56.24-.06-.04-.11-.08-.17-.12Z"/>
    </g>
  </g>
</svg>