<?xml version="1.0" encoding="UTF-8"?>
<svg id="Capa_2" xmlns="http://www.w3.org/2000/svg" viewBox="0 0 387.43 281.2">
  <defs>
    <style>
      .cls-1, .cls-2 {
        fill: none;
      }

      .cls-2 {
        stroke: #7a7261;
        stroke-miterlimit: 10;
        stroke-width: 12px;
      }

      .cls-3 {
        fill: #7a7261;
      }

      .cls-4 {
        fill: #b2a290;
      }

      .cls-5 {
        fill: #bed3cf;
      }
    </style>
  </defs>
  <g id="Layer_1">
    <g>
      <path class="cls-3" d="M0,37.07c0-3.85,3.15-8.05,7.69-8.05,3.5,0,6.65,1.75,9.44,4.9,2.45,2.45,15.04,18.19,15.04,65.75,0,23.78-.7,42.32-.7,42.32C52.11,76.25,89.19,0,144.8,0c24.48,0,39.87,15.74,39.87,40.92,0,30.08-20.64,64-43.37,86.39,18.19,3.85,31.48,11.89,39.52,23.78,9.29-1.43,19.31-2.13,28.94-2.1,2.59,0,5.08,1.32,6.33,3.59,2.4,4.33-1.25,8.3-6.59,8.3-6.65,0-15.74,1.05-22.38,1.75,1.75,4.55,2.45,9.44,2.45,15.39,0,44.07-49.31,103.18-105.62,103.18-27.28,0-39.87-13.29-39.87-29.38,0-33.23,57.36-81.49,122.06-97.23-7.69-7.69-21.68-16.09-36.37-17.14-19.94,15.39-42.32,25.88-60.16,25.88-9.79,0-18.19-4.2-18.19-11.89,0-12.24,28.33-26.23,66.1-26.23,1.75,0,3.5,0,5.25.35,25.18-20.98,46.87-53.51,46.87-84.99,0-16.44-9.44-27.28-24.83-27.28-51.76,0-88.49,93.03-106.32,157.04-9.09,33.23-13.64,59.11-14.69,66.1-.7,4.55-2.8,8.39-7.69,8.39-4.2,0-7.35-2.45-7.35-8.04,0-.7,0-2.8.35-4.2,2.45-14.69,8.39-84.29,8.39-128.71,0-47.22-8.75-55.26-12.94-59.11-3.15-2.45-4.55-5.25-4.55-7.69ZM172.41,165.78c-59.81,14.34-113.67,57.36-113.67,86.39,0,7.69,6.64,15.74,24.48,15.74,48.97,0,90.94-52.11,90.94-90.24,0-4.2-.7-8.04-1.75-11.89ZM105.26,137.8c-22.03,2.1-37.42,8.04-37.42,12.24,0,.35.35.7,1.75.7,10.84,0,22.38-4.55,35.68-12.94Z"/>
      <path class="cls-2" d="M201.79,155.28c8.8-1.22,25.21.97,23.43.96"/>
      <g>
        <path class="cls-5" d="M322.53,105.5c.72-.72,1.93-.27,2.86-.45-.8,1.28-1.04,2.8-1.78,4.1-1.65,3.11-3.78,5.93-5.85,8.77-1.89,2.59-3.88,5.1-5.89,7.6-3.47,4.42-7.09,8.73-11.17,12.6-1.35,1.4-2.96,2.54-4.13,4.11l-.06.07c-6.03,1.25-12.02,2.62-18.05,3.85,2.55-1.26,4.97-2.76,7.35-4.3,14.7-9.25,27.02-22,36.72-36.36Z"/>
        <path class="cls-5" d="M323.61,158.23c5.16,2.86,10.29,5.82,14.89,9.54-1.24.5-2.2,1.41-3.24,2.21-4.68-3.66-9.87-6.62-15.21-9.19-5.74-2.79-11.72-5.13-17.89-6.79-8.44-2.12-17.06-3.73-25.79-3.91-2.04.04-4.11-.35-6.11.13,1.42-.9,3.14-.67,4.73-.9,6.18-.69,12.31-1.8,18.41-2.93l.06.06c.58.73,1.57.71,2.39.94,4,.96,7.82,2.51,11.72,3.78,2.84.96,5.71,1.85,8.41,3.17,2.56,1.24,5.13,2.49,7.62,3.88Z"/>
        <path class="cls-5" d="M374.81,115.67c4.29,2.05,8.57,4.14,12.62,6.63-4.28,5.27-8.21,10.8-12.43,16.11-4.31,5.28-8.85,10.42-14.12,14.78-2.93,2.59-6.25,4.66-9.38,6.99-4.17,2.81-8.54,5.28-13,7.59-4.59-3.73-9.73-6.68-14.89-9.54-2.49-1.39-5.05-2.64-7.62-3.88-2.7-1.32-5.58-2.21-8.41-3.17-3.9-1.27-7.72-2.82-11.72-3.78-.82-.23-1.82-.21-2.39-.94,6.99-1.32,14-2.61,20.9-4.38,10.1-2.62,10.27-2.03,20.21-5.22,3.69-1.25,5.96-1.74,9.14-4.1-.15-.21-.43-.7-.59-.9-2.77.08-6.22.47-8.89,1.23-16.6,4.48-20.88,5.45-37.68,9.15,1.17-1.57,2.78-2.71,4.13-4.11,4.08-3.87,7.7-8.19,11.17-12.6,2.01-2.5,4-5.01,5.89-7.6,2.07-2.84,4.19-5.66,5.85-8.77.74-1.31.99-2.83,1.78-4.1,6.38-.15,12.79.19,19.09,1.27,5.08.74,10.01,2.19,14.95,3.56,5.25,1.59,10.43,3.44,15.38,5.79Z"/>
        <path class="cls-1" d="M374.81,115.67c-4.96-2.35-10.14-4.2-15.38-5.79-4.94-1.37-9.87-2.82-14.95-3.56-6.3-1.08-12.71-1.42-19.09-1.27-.93.18-2.14-.27-2.86.45-9.7,14.36-22.01,27.11-36.72,36.36-2.39,1.54-4.8,3.04-7.35,4.3,6.03-1.23,12.03-2.6,18.05-3.85l.06-.07c16.79-3.7,33.45-7.99,50.06-12.47,2.66-.76,5.39-1.29,8.16-1.37.15.2.31.41.47.61-3.18,2.35-7.05,3.4-10.74,4.65-9.94,3.19-20.05,5.8-30.15,8.42-6.9,1.78-13.91,3.06-20.9,4.38l-.06-.06c-6.11,1.13-12.23,2.24-18.41,2.93-1.59.23-3.31,0-4.73.9,2-.48,4.07-.1,6.11-.13,8.73.18,17.35,1.79,25.79,3.91,6.17,1.66,12.15,4.01,17.89,6.79,5.34,2.57,10.53,5.53,15.21,9.19,1.04-.8,2-1.71,3.24-2.21,4.46-2.31,8.84-4.78,13-7.59,3.13-2.33,6.45-4.41,9.38-6.99,5.27-4.35,9.81-9.49,14.12-14.78,4.22-5.31,8.15-10.84,12.43-16.11-4.05-2.49-8.33-4.58-12.62-6.63Z"/>
        <path class="cls-4" d="M336.22,44.43c-.78.52-1.69.72-2.61.84-3.35.48-6.61,1.4-9.98,1.81-5.37.61-10.61,2.07-15.68,3.93-8.4,2.93-16.43,6.93-23.88,11.78-5.72,3.61-11.09,7.77-16,12.43-9.19,8.48-16.97,18.51-22.7,29.65-4.94,9.86-8.83,20.28-11.29,31.03-1.24,5.39-2.47,10.84-2.68,16.38,8.68-12.82,18.67-24.7,29.08-36.14,4.53-5,9.4-9.67,14.2-14.41,5.76-5.74,11.6-11.4,17.5-17,2.64-2.48,5.23-5.13,8.53-6.73.14.21.27.42.4.63-1.52,3.35-4.17,5.97-6.63,8.63-5.75,6.12-11.69,12.06-17.52,18.09-4.15,4.24-8.06,8.71-12.04,13.11-9.83,10.88-19.98,21.53-28.98,33.12h-.07c-1.09,1.56-2.34,3.01-3.37,4.6,1.26-.58,2.52-1.16,3.85-1.56,5.81-1.83,11.86-2.78,17.89-3.57,2.53-.31,4.88-1.36,7.25-2.24,3.67-1.5,7.33-3.03,10.8-4.95,3.79-1.7,7.29-4.06,10.89-6.15,2.25-1.72,4.72-3.13,6.92-4.9,7.69-5.73,14.79-12.29,20.95-19.65,6.97-8.28,13.06-17.39,17.2-27.42,2.7-6.32,4.43-12.99,5.88-19.69,1.42-7.11,2.57-14.36,2.1-21.63Z"/>
        <path class="cls-1" d="M353.18,191.6c.1.32.2.64.29.97-1.55-2.12-3.5-3.9-5.31-5.78-6.85-6.68-14.53-12.51-22.78-17.35-5.49-3.07-11.18-5.81-17.08-7.99-10.89-4.15-22.51-6.28-34.15-6.54-6.14-.18-12.3-.06-18.41.64-3.69.45-7.25,1.56-10.91,2.2-3.57.77-7.23,1.04-10.79,1.88,1.46,1.56,3.32,2.66,4.99,3.99,5.91,4.34,12.27,8.01,18.62,11.65,5.53,3.08,11.08,6.12,16.69,9.05,11.15,5.66,22.47,10.99,33.89,16.06,4.56,2.09,9.3,3.8,13.75,6.14.97.62,2.2.98,2.8,2.03-.15.08-.46.23-.61.31-5.1-.41-9.85-2.43-14.59-4.22-12.23-4.76-24.14-10.27-35.95-16-10.82-5.11-21.32-11.02-30.94-18.16-4.15-3.03-7.97-6.49-11.77-9.93l-.47.27c2.63,3.75,4.72,7.86,7.58,11.44,7.27,10.23,15.89,19.58,25.89,27.22,9.18,7.04,19.34,12.83,30.09,17.1,12.15,4.67,25.03,7.85,38.12,7.84,6.56.04,13.09-.83,19.55-1.89,6.33-1.24,12.76-2.56,18.6-5.4-2.25-3.25-4.27-6.65-6.39-9.98-1.71-3.49-3.89-6.76-6.32-9.79-1.3-2.05-3.38-3.53-4.41-5.76Z"/>
        <path class="cls-4" d="M336.22,44.43c.47,7.27-.68,14.52-2.1,21.63-1.45,6.7-3.18,13.38-5.88,19.69-4.14,10.03-10.23,19.14-17.2,27.42-6.16,7.36-13.26,13.92-20.95,19.65-2.21,1.77-4.67,3.19-6.92,4.9-3.6,2.09-7.1,4.45-10.89,6.15-4.07-.24-8.12.56-12.03,1.61-6.63.98-13.17,2.59-19.52,4.74-1.59.45-3.1,1.3-4.79,1.37,9.01-11.59,19.15-22.24,28.98-33.12,3.98-4.4,7.89-8.86,12.04-13.11,5.84-6.03,11.77-11.97,17.52-18.09,2.46-2.66,5.11-5.29,6.63-8.63-.13-.21-.26-.42-.4-.63-3.3,1.6-5.89,4.25-8.53,6.73-5.9,5.6-11.74,11.26-17.5,17-4.8,4.74-9.67,9.41-14.2,14.41-10.41,11.44-20.4,23.33-29.08,36.14.21-5.55,1.44-10.99,2.68-16.38,2.46-10.76,6.35-21.17,11.29-31.03,5.73-11.14,13.51-21.17,22.7-29.65,4.91-4.66,10.28-8.82,16-12.43,7.46-4.86,15.48-8.85,23.88-11.78,5.07-1.86,10.31-3.32,15.68-3.93,3.36-.41,6.63-1.33,9.98-1.81.91-.12,1.83-.32,2.61-.84Z"/>
        <path class="cls-3" d="M353.18,191.6c1.03,2.22,3.11,3.71,4.41,5.76,2.43,3.03,4.61,6.3,6.32,9.79,2.12,3.33,4.14,6.74,6.39,9.98-5.84,2.84-12.27,4.15-18.6,5.4-6.46,1.06-12.99,1.93-19.55,1.89-13.08.01-25.96-3.16-38.12-7.84-10.75-4.27-20.91-10.06-30.09-17.1-10-7.63-18.62-16.99-25.89-27.22-2.86-3.58-4.96-7.69-7.58-11.44l.47-.27c3.8,3.44,7.61,6.9,11.77,9.93,9.63,7.14,20.12,13.05,30.94,18.16,11.8,5.73,23.72,11.24,35.95,16,4.73,1.79,9.48,3.81,14.59,4.22.15-.08.45-.24.61-.31-.6-1.05-1.83-1.41-2.8-2.03-4.44-2.34-9.18-4.05-13.75-6.14-11.43-5.07-22.74-10.4-33.89-16.06-5.61-2.94-11.16-5.97-16.69-9.05-6.35-3.64-12.71-7.31-18.62-11.65-1.67-1.32-3.53-2.43-4.99-3.99,3.56-.84,7.22-1.11,10.79-1.88,3.66-.64,7.22-1.75,10.91-2.2,6.1-.7,12.27-.82,18.41-.64,11.64.26,23.26,2.39,34.15,6.54,5.9,2.18,11.59,4.91,17.08,7.99,8.25,4.84,15.93,10.67,22.78,17.35,1.81,1.89,3.76,3.67,5.31,5.78-.1-.33-.2-.65-.29-.97Z"/>
      </g>
      <circle class="cls-3" cx="225.16" cy="156.32" r="5.98"/>
    </g>
  </g>
</svg>